Simulation
nRows=42
nColumns=15
endheader
time  TH_x TH_y TH_z SC_y  SC_z  SC_x  AC_y  AC_z  AC_x  GH_y  GH_z  GH_yy  EL_x  PS_y
2.2499999999999996  0.000000  0.000000  0.000000  -43.84005747193897  7.89314583472248  0.40434272781412767  57.03547581663248  17.87695424643275  16.45790909511537  68.48650048259852  52.91978691660712  -67.4674484492122  21.566671586728294  120.000000
2.2949999999999995  0.000000  0.000000  0.000000  -43.92418190375622  7.926217513974652  0.7569997739784304  57.11030045522154  17.78881137204786  16.36118782805764  68.42218865486596  53.188389303608744  -67.31231066876998  21.951539694425453  120.000000
2.3399999999999994  0.000000  0.000000  0.000000  -43.9434102227546  7.9176518941657745  0.9803192578404154  57.167349847316295  17.67194095626786  16.257062820795415  68.37161688097507  53.40057080256384  -67.18835177636964  22.30737071934602  120.000000
2.3849999999999993  0.000000  0.000000  0.000000  -43.911332633410474  7.883253972266826  1.106988757578372  57.18771705756411  17.54936123758211  16.144643227057145  68.32391720925611  53.56880376113033  -67.05365972664488  22.589124451387985  120.000000
2.4299999999999997  0.000000  0.000000  0.000000  -43.84568711360524  7.847553025001612  1.1868510096261453  57.15522363882362  17.440789095353246  16.026028809220517  68.26902678836991  53.707245549578474  -66.85879248275448  22.77087420504195  120.000000
2.4749999999999996  0.000000  0.000000  0.000000  -43.766326877868934  7.843064297385218  1.283804515261844  57.05833748573913  17.360399096558385  15.906633203014316  68.19969308710519  53.8308864182691  -66.5524140901126  22.846948477620234  120.000000
2.5199999999999996  0.000000  0.000000  0.000000  -43.69319438685869  7.908050780867028  1.4707907777148916  56.89148697428826  17.313916132615386  15.795488343144614  68.11377329566693  53.955367050020364  -66.08840650062159  22.828710190822527  120.000000
2.5649999999999995  0.000000  0.000000  0.000000  -43.64527310167102  8.082080130201867  1.823759609208514  56.65653116272006  17.296010315262098  15.705197647231195  68.0159141887754  54.097120247659205  -65.43292841423727  22.73775300876186  120.000000
2.6099999999999994  0.000000  0.000000  0.000000  -43.6400550758997  8.400708393869591  2.4149427795980287  56.36323899526145  17.28810473446068  15.651615141201818  67.91828490763177  54.273756533952444  -64.57102694762774  22.598580818336202  120.000000
2.6549999999999994  0.000000  0.000000  0.000000  -43.69360164553564  8.8905253432059  3.306912359610807  56.029982118216786  17.258970507031385  15.652129153583669  67.83972602666566  54.50401344418154  -63.510433822987466  22.432295502234854  120.000000
2.6999999999999993  0.000000  0.000000  0.000000  -43.82066274856459  9.56492746380537  4.547714700279415  55.682837809237085  17.167067087672464  15.72403985689871  67.80402251514784  54.8070695522962  -62.282525543277714  22.253179995710152  120.000000
2.7449999999999997  0.000000  0.000000  0.000000  -44.03468234026783  10.421412329764458  6.168232817331009  55.35404211665438  16.965838900645938  15.882418429126268  67.83721226019412  55.200590428970216  -60.938778400377835  22.06775976947308  120.000000
2.7899999999999996  0.000000  0.000000  0.000000  -44.34729901642454  11.442493559387355  8.18098971530147  55.07953471776369  16.610296582316863  16.137294435324154  67.96345782650407  55.69910126220768  -59.544087111942055  21.876081498469  120.000000
2.8349999999999995  0.000000  0.000000  0.000000  -44.76666532702474  12.596975023373854  10.580284749365456  54.89580833731097  16.06282645601604  16.491895841500654  68.20115755881478  56.31195236263256  -58.167654953717864  21.67366726750029  120.000000
2.8799999999999994  0.000000  0.000000  0.000000  -45.295450742866024  13.842664194340763  13.342780431506474  54.83670136559303  15.29673959421418  16.941550150340674  68.56022383880203  57.04248706650351  -56.8742377778254  21.453937072170717  120.000000
2.9249999999999994  0.000000  0.000000  0.000000  -45.929315903771254  15.130436692200789  16.429407583932026  54.93031214892497  14.297930579873222  17.472167956731564  69.03987217330881  57.88742727102993  -55.71565704333624  21.20949792254817  120.000000
2.9699999999999993  0.000000  0.000000  0.000000  -46.65671005311612  16.40863813126489  19.78789333252378  55.19570063022537  13.063996510437482  18.058508564946266  69.62865332679499  58.836850061328555  -54.725008494183555  20.93291175965433  120.000000
3.0149999999999992  0.000000  0.000000  0.000000  -47.46015462756409  17.62750217259657  23.356263466064412  55.6391560130895  11.60117820799756  18.66278053589397  70.3068161813686  59.87366744259558  -53.913283291470634  20.61619772981516  120.000000
3.0599999999999996  0.000000  0.000000  0.000000  -48.31821612504954  18.744781509811954  27.067055278364784  56.250227727021496  9.920172902587254  19.23310022658087  71.05053350476406  60.97315491161501  -53.26948872995718  20.25006482809916  120.000000
3.1049999999999995  0.000000  0.000000  0.000000  -49.208278985870216  19.72824749814457  30.852999879643225  56.9970004410784  8.030441765765847  19.707030111030438  71.83664408503394  62.10257042380759  -52.76332469426135  19.823116749913215  120.000000
3.1499999999999995  0.000000  0.000000  0.000000  -50.104331093365865  20.562434945296523  34.654888244884624  57.8233725554877  5.944473906903792  20.025150682140712  72.64344350210376  63.22565705638819  -52.34959957113193  19.322515843707034  120.000000
3.1949999999999994  0.000000  0.000000  0.000000  -50.97390664076412  21.242990528986144  38.41908232052802  58.66117407511392  3.695641054524992  20.151144029543204  73.45217723055106  64.31277484387262  -51.97707178254383  18.740752074518536  120.000000
3.2399999999999993  0.000000  0.000000  0.000000  -51.77781367960343  21.775321232628027  42.082362795157884  59.44365353703223  1.3479559634228437  20.081143829882038  74.24523628528887  65.33752477022601  -51.597168677968355  18.0791764890217  120.000000
3.2849999999999993  0.000000  0.000000  0.000000  -52.476942887137774  22.17666238744261  45.56521918609243  60.11296013100879  -1.0136043378856248  19.833446043209086  75.0016613998215  66.2660858864727  -51.17464461599857  17.345363122932092  120.000000
3.329999999999999  0.000000  0.000000  0.000000  -53.04317311183475  22.46390146107766  48.776729566236796  60.62899802145534  -3.2964281383445346  19.433097307994167  75.6992008583575  67.06099709848424  -50.69986943664785  16.55968480179777  120.000000
3.3749999999999996  0.000000  0.000000  0.000000  -53.46065311794385  22.65048915705158  51.62296827702057  60.973320265051065  -5.410270294525315  18.907059501888252  76.31505228219058  67.68689696407337  -50.195494257033566  15.757220458754702  120.000000
3.4199999999999995  0.000000  0.000000  0.000000  -53.721593394070524  22.749459387958527  54.0138385797971  61.14696246022311  -7.272807785490081  18.283317007609487  76.82741325393323  68.11451873404033  -49.71626686607208  14.986513730018123  120.000000
3.4649999999999994  0.000000  0.000000  0.000000  -53.82536751895486  22.77266949967448  55.868724959763796  61.16680804534474  -8.815457463158523  17.594181668268597  77.21901719084563  68.32140735988213  -49.34190242192224  14.30317085352869  120.000000
3.5099999999999993  0.000000  0.000000  0.000000  -53.77661361841528  22.730977132838774  57.12108292226881  61.05950326360122  -9.983669240144739  16.873534481605684  77.47905316185162  68.29424056630423  -49.16545976118301  13.763759627482374  120.000000
3.5549999999999993  0.000000  0.000000  0.000000  -53.58254936338859  22.629594695409423  57.72065329927426  60.857487338602944  -10.73756602816705  16.153183545815224  77.60434505890409  68.03033189476015  -49.27987476407768  13.417025517280168  120.000000
3.599999999999999  0.000000  0.000000  0.000000  -53.245868185425536  22.466838887904995  57.631852155919695  60.59123284598975  -11.053627525584439  15.458643686658982  77.59935761606746  67.5389901528033  -49.76556422846402  13.298260757091473  120.000000
3.644999999999999  0.000000  0.000000  0.000000  -52.76852829553627  22.23149975615896  56.83763138787378  60.28525819859688  -10.923571087258555  14.805905376347498  77.47470721287115  66.84239499134443  -50.67720339979924  13.424126273311824  120.000000
3.6899999999999995  0.000000  0.000000  0.000000  -52.15703685918465  21.90897398446174  55.34293771000652  59.951666198542014  -10.354025574967592  14.200717097687209  77.24547127619147  65.97355737552132  -52.033609506099765  13.79320993623401  120.000000
3.7349999999999994  0.000000  0.000000  0.000000  -51.43259281982863  21.48753607883933  53.181167151791485  59.591427694191964  -9.364726818871757  13.641494254866622  76.92950605627493  64.97244509707743  -53.81045253991495  14.385068723540286  120.000000
3.7799999999999994  0.000000  0.000000  0.000000  -50.62904711761572  20.95930618010612  50.4108527859211  59.195639214103764  -7.993551932628484  13.125502824506999  76.54562547729938  63.87976683994867  -55.94180660588815  15.163546642195264  120.000000
3.8249999999999993  0.000000  0.000000  0.000000  -49.78942351344823  20.321059205796786  47.116837507535315  58.75695843147344  -6.29626841584341  12.65861888799535  76.11252170641218  62.734128845746206  -58.324846706623546  16.077153760206027  120.000000
3.869999999999999  0.000000  0.000000  0.000000  -48.95005748822962  19.57189296856475  43.408002138535466  58.28491626173287  -4.342198388152269  12.260073008993203  75.64954272549024  61.5735614749804  -60.83230475001721  17.068206800166852  120.000000
3.914999999999999  0.000000  0.000000  0.000000  -48.14008521962628  18.713691309526215  39.41465672540642  57.80924646732619  -2.2129534611442163  11.960308389750077  75.17401763784572  60.430986414502684  -63.32378280805602  18.07378299249316  120.000000
3.959999999999999  0.000000  0.000000  0.000000  -47.39020409357646  17.762231988951807  35.282951273735776  57.36796954438861  -0.001871712649178655  11.78934504451778  74.69784045971289  59.330731385914206  -65.66042726498826  19.030981889104968  120.000000
4.004999999999999  0.000000  0.000000  0.000000  -46.726648122157826  16.748216681948563  31.166375092678965  56.99939800929429  2.1973116766206138  11.76915915498846  74.22625134597402  58.29390511061711  -67.72072342670855  19.882992205509147  120.000000
4.049999999999999  0.000000  0.000000  0.000000  -46.16869752042857  15.719682843808682  27.211449615309565  56.734696712455445  4.303696178854096  11.912363155602735  73.76162387881043  57.341185984301646  -69.41485369620113  20.589890489801206  120.000000
4.094999999999999  0.000000  0.000000  0.000000  -45.723921295224095  14.72843457784089  23.539795759774176  56.59392919821151  6.259570056575956  12.216737621903098  73.30810234463043  56.48878045732303  -70.69420045496746  21.131923697321554  120.000000
